<svg version="1.1" viewBox="0.0 0.0 244.0 349.0" fill="none" stroke="none" stroke-linecap="square" stroke-miterlimit="10" xmlns:xlink="http://www.w3.org/1999/xlink" xmlns="http://www.w3.org/2000/svg"><clipPath id="p.0"><path d="m0 0l244.0 0l0 349.0l-244.0 0l0 -349.0z" clip-rule="nonzero"/></clipPath><g clip-path="url(#p.0)"><path fill="#000000" fill-opacity="0.0" d="m0 0l244.0 0l0 349.0l-244.0 0z" fill-rule="evenodd"/><path fill="#000000" fill-opacity="0.0" d="m112.99329 182.95131l-55.338585 102.110245" fill-rule="evenodd"/><path stroke="#4c1130" stroke-width="8.0" stroke-linejoin="round" stroke-linecap="butt" d="m112.99329 182.95131l-55.338585 102.110245" fill-rule="evenodd"/><path fill="#000000" fill-opacity="0.0" d="m146.94604 135.92769l23.905518 -55.49607" fill-rule="evenodd"/><path stroke="#4c1130" stroke-width="8.0" stroke-linejoin="round" stroke-linecap="butt" d="m146.94604 135.92769l23.905518 -55.49607" fill-rule="evenodd"/><path fill="#000000" fill-opacity="0.0" d="m78.44072 80.33788l27.968506 62.173225" fill-rule="evenodd"/><path stroke="#4c1130" stroke-width="8.0" stroke-linejoin="round" stroke-linecap="butt" d="m78.44072 80.33788l27.968506 62.173225" fill-rule="evenodd"/><path fill="#000000" fill-opacity="0.0" d="m153.54448 176.36862l51.149597 -13.921249" fill-rule="evenodd"/><path stroke="#4c1130" stroke-width="8.0" stroke-linejoin="round" stroke-linecap="butt" d="m153.54448 176.36862l51.149597 -13.921249" fill-rule="evenodd"/><path fill="#000000" fill-opacity="0.0" d="m134.63547 188.03557l35.905502 91.49605" fill-rule="evenodd"/><path stroke="#4c1130" stroke-width="8.0" stroke-linejoin="round" stroke-linecap="butt" d="m134.63547 188.03557l35.905502 91.49605" fill-rule="evenodd"/><path fill="#fbbc05" d="m106.39487 142.51036l0 0c9.375793 -12.985214 27.531174 -15.932381 40.551178 -6.582672l0 0c6.252426 4.4898834 10.46019 11.272995 11.697632 18.857147c1.2374573 7.584152 -0.5967865 15.348068 -5.0991974 21.583786l0 0c-9.375809 12.985214 -27.531181 15.932388 -40.551186 6.5826874l0 0c-13.020004 -9.349701 -15.97422 -27.455734 -6.598427 -40.44095z" fill-rule="evenodd"/><path stroke="#4c1130" stroke-width="8.0" stroke-linejoin="round" stroke-linecap="butt" d="m106.39487 142.51036l0 0c9.375793 -12.985214 27.531174 -15.932381 40.551178 -6.582672l0 0c6.252426 4.4898834 10.46019 11.272995 11.697632 18.857147c1.2374573 7.584152 -0.5967865 15.348068 -5.0991974 21.583786l0 0c-9.375809 12.985214 -27.531181 15.932388 -40.551186 6.5826874l0 0c-13.020004 -9.349701 -15.97422 -27.455734 -6.598427 -40.44095z" fill-rule="evenodd"/><path fill="#34a853" d="m17.077942 291.50204l0 0c9.4279785 -12.950439 27.597462 -15.827087 40.582676 -6.4252014l0 0c6.2357216 4.514923 10.417507 11.31546 11.625423 18.905518c1.2079086 7.5900574 -0.6570053 15.3479 -5.1844788 21.566925l0 0c-9.4279785 12.950409 -27.597462 15.827087 -40.582676 6.4252014l0 0c-12.985215 -9.4019165 -15.868925 -27.522034 -6.4409447 -40.472443z" fill-rule="evenodd"/><path stroke="#4c1130" stroke-width="8.0" stroke-linejoin="round" stroke-linecap="butt" d="m17.077942 291.50204l0 0c9.4279785 -12.950439 27.597462 -15.827087 40.582676 -6.4252014l0 0c6.2357216 4.514923 10.417507 11.31546 11.625423 18.905518c1.2079086 7.5900574 -0.6570053 15.3479 -5.1844788 21.566925l0 0c-9.4279785 12.950409 -27.597462 15.827087 -40.582676 6.4252014l0 0c-12.985215 -9.4019165 -15.868925 -27.522034 -6.4409447 -40.472443z" fill-rule="evenodd"/><path fill="#4285f4" d="m141.4804 308.505l0 0c0 -15.994507 13.008423 -28.960632 29.05513 -28.960632l0 0c7.705887 0 15.096176 3.0512085 20.54506 8.482361c5.4488983 5.431183 8.510056 12.797424 8.510056 20.478271l0 0c0 15.994507 -13.008423 28.960632 -29.055115 28.960632l0 0c-16.046707 0 -29.05513 -12.9661255 -29.05513 -28.960632z" fill-rule="evenodd"/><path stroke="#4c1130" stroke-width="8.0" stroke-linejoin="round" stroke-linecap="butt" d="m141.4804 308.505l0 0c0 -15.994507 13.008423 -28.960632 29.05513 -28.960632l0 0c7.705887 0 15.096176 3.0512085 20.54506 8.482361c5.4488983 5.431183 8.510056 12.797424 8.510056 20.478271l0 0c0 15.994507 -13.008423 28.960632 -29.055115 28.960632l0 0c-16.046707 0 -29.05513 -12.9661255 -29.05513 -28.960632z" fill-rule="evenodd"/><path fill="#fbbc05" d="m201.71799 173.85643l0 0c-1.1828461 -8.42778 4.704422 -16.218735 13.149597 -17.40158l0 0c4.0555115 -0.5680237 8.170578 0.49494934 11.439911 2.9550781c3.269333 2.4601135 5.4251404 6.1158752 5.993164 10.16304l0 0c1.1828461 8.42778 -4.7044373 16.21872 -13.149612 17.401566l0 0c-8.445175 1.1828461 -16.250214 -4.690323 -17.43306 -13.118103z" fill-rule="evenodd"/><path stroke="#4c1130" stroke-width="8.0" stroke-linejoin="round" stroke-linecap="butt" d="m201.71799 173.85643l0 0c-1.1828461 -8.42778 4.704422 -16.218735 13.149597 -17.40158l0 0c4.0555115 -0.5680237 8.170578 0.49494934 11.439911 2.9550781c3.269333 2.4601135 5.4251404 6.1158752 5.993164 10.16304l0 0c1.1828461 8.42778 -4.7044373 16.21872 -13.149612 17.401566l0 0c-8.445175 1.1828461 -16.250214 -4.690323 -17.43306 -13.118103z" fill-rule="evenodd"/><path fill="#ea4335" d="m152.16519 58.78389l0 0c-6.4621735 -19.569145 4.205429 -40.65759 23.826767 -47.10236l0 0c9.422501 -3.0948887 19.691818 -2.3299026 28.548859 2.1266708c8.857025 4.4565725 15.576248 12.239675 18.67949 21.637108l0 0c6.462158 19.569145 -4.2054443 40.65759 -23.826767 47.10236l0 0c-19.621338 6.444771 -40.76619 -4.1946335 -47.228348 -23.763779z" fill-rule="evenodd"/><path stroke="#4c1130" stroke-width="8.0" stroke-linejoin="round" stroke-linecap="butt" d="m152.16519 58.78389l0 0c-6.4621735 -19.569145 4.205429 -40.65759 23.826767 -47.10236l0 0c9.422501 -3.0948887 19.691818 -2.3299026 28.548859 2.1266708c8.857025 4.4565725 15.576248 12.239675 18.67949 21.637108l0 0c6.462158 19.569145 -4.2054443 40.65759 -23.826767 47.10236l0 0c-19.621338 6.444771 -40.76619 -4.1946335 -47.228348 -23.763779z" fill-rule="evenodd"/><path fill="#fbbc05" d="m49.93559 79.43483l0 0c-3.0092964 -7.949417 1.016613 -16.826164 8.992126 -19.826767l0 0c3.829979 -1.4409409 8.07716 -1.3063889 11.807217 0.37405396c3.7300491 1.6804466 6.6374283 4.769127 8.08255 8.586578l0 0c3.0093002 7.949417 -1.0166168 16.826164 -8.992126 19.826767l0 0c-7.9755135 3.0006027 -16.880466 -1.0112076 -19.889767 -8.960632z" fill-rule="evenodd"/><path stroke="#4c1130" stroke-width="8.0" stroke-linejoin="round" stroke-linecap="butt" d="m49.93559 79.43483l0 0c-3.0092964 -7.949417 1.016613 -16.826164 8.992126 -19.826767l0 0c3.829979 -1.4409409 8.07716 -1.3063889 11.807217 0.37405396c3.7300491 1.6804466 6.6374283 4.769127 8.08255 8.586578l0 0c3.0093002 7.949417 -1.0166168 16.826164 -8.992126 19.826767l0 0c-7.9755135 3.0006027 -16.880466 -1.0112076 -19.889767 -8.960632z" fill-rule="evenodd"/></g></svg>